<svg xmlns="http://www.w3.org/2000/svg" width="14.525" height="14.525" viewBox="0 0 14.525 14.525">
  <g id="Group_5471" data-name="Group 5471" transform="translate(0.1 0.1)">
    <path id="Path_641" data-name="Path 641" d="M37.231,33l-1.587,1.587L34.058,33,33,34.058l1.587,1.587L33,37.231l1.058,1.058L35.644,36.7l1.587,1.587,1.058-1.058L36.7,35.644l1.587-1.587Z" transform="translate(-28.482 -28.482)" fill="#485564" stroke="#fff" stroke-width="0.2"/>
    <path id="Path_642" data-name="Path 642" d="M9.663,2.5a7.163,7.163,0,1,0,7.163,7.163A7.169,7.169,0,0,0,9.663,2.5Zm0,12.877a5.715,5.715,0,1,1,5.715-5.715A5.721,5.721,0,0,1,9.663,15.377Z" transform="translate(-2.5 -2.5)" fill="#485564" stroke="#fff" stroke-width="0.2"/>
  </g>
</svg>
