<svg id="download" xmlns="http://www.w3.org/2000/svg" width="9.837" height="9.837" viewBox="0 0 9.837 9.837">
  <path id="Path_9031" data-name="Path 9031" d="M1.128,61.408v2.161H8.71V61.408a.564.564,0,0,1,1.127,0v2.234A1.055,1.055,0,0,1,8.783,64.7H1.054A1.055,1.055,0,0,1,0,63.642V61.408a.564.564,0,0,1,1.128,0Z" transform="translate(0 -54.859)" fill="#404b61"/>
  <path id="Path_9032" data-name="Path 9032" d="M24.036,6.663,26.349,4.35a.564.564,0,1,0-.8-.8L24.22,4.885V.564a.564.564,0,0,0-1.127,0V4.923l-1.369-1.37a.564.564,0,0,0-.8.8l2.313,2.313a.563.563,0,0,0,.8,0Z" transform="translate(-18.719)" fill="#404b61"/>
</svg>
